<svg xmlns="http://www.w3.org/2000/svg" viewBox="0 0 512 512" role="img" aria-label="AIStack24">
  <defs>
    <linearGradient id="bg" x1="86" y1="70" x2="430" y2="448" gradientUnits="userSpaceOnUse">
      <stop stop-color="#1f7dff"/>
      <stop offset=".48" stop-color="#1564e8"/>
      <stop offset="1" stop-color="#0b42bd"/>
    </linearGradient>
    <linearGradient id="shine" x1="110" y1="92" x2="390" y2="410" gradientUnits="userSpaceOnUse">
      <stop stop-color="#ffffff" stop-opacity=".28"/>
      <stop offset=".55" stop-color="#ffffff" stop-opacity=".04"/>
      <stop offset="1" stop-color="#ffffff" stop-opacity="0"/>
    </linearGradient>
    <filter id="shadow" x="-20%" y="-20%" width="140%" height="140%">
      <feDropShadow dx="0" dy="22" stdDeviation="22" flood-color="#052b78" flood-opacity=".34"/>
    </filter>
  </defs>
  <rect x="54" y="54" width="404" height="404" rx="92" fill="url(#bg)" filter="url(#shadow)"/>
  <rect x="76" y="76" width="360" height="360" rx="74" fill="url(#shine)"/>
  <path d="M145 282l78 76 139-174" fill="none" stroke="#fff" stroke-width="54" stroke-linecap="round" stroke-linejoin="round"/>
  <path d="M414 86l15 40 40 15-40 15-15 40-15-40-40-15 40-15 15-40Z" fill="#fff"/>
  <path d="M364 93l7 18 18 7-18 7-7 18-7-18-18-7 18-7 7-18Z" fill="#cfe2ff"/>
</svg>